<?xml version="1.0" encoding="utf-8"?>
<!-- Generator: Adobe Illustrator 16.0.3, SVG Export Plug-In . SVG Version: 6.00 Build 0)  -->
<!DOCTYPE svg PUBLIC "-//W3C//DTD SVG 1.1//EN" "http://www.w3.org/Graphics/SVG/1.1/DTD/svg11.dtd">
<svg version="1.1" id="Capa_1" xmlns="http://www.w3.org/2000/svg" xmlns:xlink="http://www.w3.org/1999/xlink" x="0px" y="0px"
	 width="612px" height="792px" viewBox="0 0 612 792" enable-background="new 0 0 612 792" xml:space="preserve">
<g id="SVGRepo_tracerCarrier" display="none">
</g>
<g id="SVGRepo_bgCarrier" display="none">
</g>
<path fill="currentColor" stroke="currentColor" d="M244.774,38.165c-28.199,36.017-85.914,208.279-85.914,305.35
	c0,97.041,53.059,150.338,57.506,184.422c4.448,34.116-13.853,128.744,9.614,181.968c23.48,53.254,53.207,75.192,104.902,72.855
	c51.713-2.244,100.231-36.868,104.934-97.939c4.701-61.068-29.621-167.276-36.017-203.561
	c-6.395-36.286,40.718-97.073,51.711-176.95c10.977-79.865-36.047-258.357-64.185-280.281
	C359.082,2.18,272.971,2.149,244.774,38.165z"/>
<path fill="currentColor" stroke="currentColor" d="M978.494,451.621c2.517-19.313,32.527-49.427,32.527-104.324
	c0-54.906-32.646-152.352-48.596-172.715c-15.959-20.346-64.656-20.346-80.614-7.971c-15.925,12.384-42.515,113.353-36.306,158.536
	c6.201,45.19,32.866,79.581,29.232,100.097c-3.617,20.517-23.031,80.598-20.363,115.133c2.66,34.543,30.104,54.102,59.362,55.389
	c29.248,1.313,46.046-11.088,59.336-41.209C986.363,524.459,975.987,470.942,978.494,451.621z"/>
</svg>
